{
	"asset": {
		"generator": "VISUALIZEGLTF",
		"version" : "2.0"
	},
	"extensionsUsed": [ "KHR_lights_punctual","KHR_texture_transform" ],
	"scenes": [
		{
			"name": "Default",
			"nodes": [
				0]
		}
	],
	"nodes": [
		{
			"children": [
				1, 6, 7, 8, 9, 10, 11
			]
			,"name": "Stamm"		}
,
		{
			"children": [
				2
			]
			,"matrix": [
				1,					0,					0,					0,
				0,					1,					0,					0,
				0,					0,					1,					0,
				0,					0.0003,					0,					1
			]
			,"name": "20210605_glass-cabinet_1700-700_VISUALIZE (Standard)"		}
,
		{
			"children": [
				3, 4
			]
			,"name": "Standard"		}
,
		{
			"mesh": 0
			,"name": "PW-MT11000"		}
,
		{
			"children": [
				5
			]
			,"mesh": 2
			,"name": "clear thick glass"		}
,
		{
			"mesh": 1
			,"name": "clear thick glass_clonedChild"		}
,
		{
			"matrix": [
				0.7259387,					-2.980232E-08,					-0.6877595,					0,
				-0.2173105,					0.9487696,					-0.2293739,					0,
				0.6525252,					0.3159687,					0.6887485,					0,
				5.258596,					2.929585,					4.325617,					1
			]
			,"camera": 0
			,"name": "Default Camera"		}
,
		{
			"matrix": [
				0,					0,					-0.9999999,					0,
				-0.7071068,					0.7071068,					0,					0,
				0.7071068,					0.7071068,					0,					0,
				7.071068,					7.071068,					0,					1
			]
			,"extensions" : {
				"KHR_lights_punctual" : {
					"light" : 0
				}
			}
			,"name": "Gerichtet1"		}
,
		{
			"matrix": [
				-0.9019192,					0,					0.4319047,					0,
				0.2645487,					0.790458,					0.5524403,					0,
				-0.3414025,					0.6125164,					-0.7129292,					0,
				-3.414026,					6.125165,					-7.12929,					1
			]
			,"extensions" : {
				"KHR_lights_punctual" : {
					"light" : 1
				}
			}
			,"name": "Gerichtet2"		}
,
		{
			"matrix": [
				-0.1920117,					0,					0.9813927,					0,
				0.3346118,					0.9400793,					0.06546756,					0,
				-0.9225869,					0.3409561,					-0.1805062,					0,
				-9.225868,					3.40956,					-1.805061,					1
			]
			,"extensions" : {
				"KHR_lights_punctual" : {
					"light" : 2
				}
			}
			,"name": "Gerichtet3"		}
,
		{
			"name": "High Contrast Ramp"		}
,
		{
			"name": "Studio Soft Grey 12"		}
	],
	"cameras": [
		{
			"type": "perspective",
			"perspective" : {
				"aspectRatio": 1.777778,
				"yfov" : 0.2617994,
				"zfar" : 100,
				"znear" : 0.01
			}
		}
	],
	"extensions": {
		"KHR_lights_punctual" : {
			"lights": [
		{
			"name": "Gerichtet1[1]",
			"color": [
					0.5773503, 0.5773503, 0.5773503
				],
			"intensity": 0.5773503,
			"type": "directional"
		}
,
		{
			"name": "Gerichtet2[1]",
			"color": [
					0.5773503, 0.5773503, 0.5773503
				],
			"intensity": 0.5773503,
			"type": "directional"
		}
,
		{
			"name": "Gerichtet3[1]",
			"color": [
					0.5773503, 0.5773503, 0.5773503
				],
			"intensity": 0.5773503,
			"type": "directional"
		}

			]
		}
	},
	"meshes" : [
		{
			"primitives" : [
				{
					"attributes" : {
					"POSITION" : 1
					,"NORMAL" : 2
					,"TEXCOORD_0" : 3
					},
					"indices" : 0,
					"mode": 4,
					"material" : 0
				}
			]
		},
		{
			"primitives" : [
				{
					"attributes" : {
					"POSITION" : 5
					,"NORMAL" : 6
					,"TEXCOORD_0" : 7
					},
					"indices" : 4,
					"mode": 4,
					"material" : 1
				}
			]
		},
		{
			"primitives" : [
				{
					"attributes" : {
					"POSITION" : 9
					,"NORMAL" : 10
					,"TEXCOORD_0" : 11
					},
					"indices" : 8,
					"mode": 4,
					"material" : 1
				}
			]
		}
	],
	"accessors" : [
			{
				"bufferView": 3,
				"byteOffset" : 0,
				"componentType" : 5125,
				"count" : 84,
				"type" : "SCALAR"
			},
			{
				"bufferView": 0,
				"byteOffset" : 0,
				"componentType" : 5126,
				"count" : 48,
				"type" : "VEC3"
								,"min": [0,0,-1.70000005]
								,"max": [0.699999988,0.899999976,0]
			},
			{
				"bufferView": 1,
				"byteOffset" : 0,
				"componentType" : 5126,
				"count" : 48,
				"type" : "VEC3"
			},
			{
				"bufferView": 2,
				"byteOffset" : 0,
				"componentType" : 5126,
				"count" : 48,
				"type" : "VEC2"
			},
			{
				"bufferView": 7,
				"byteOffset" : 0,
				"componentType" : 5125,
				"count" : 180,
				"type" : "SCALAR"
			},
			{
				"bufferView": 4,
				"byteOffset" : 0,
				"componentType" : 5126,
				"count" : 122,
				"type" : "VEC3"
								,"min": [-4.33680869E-19,0.899999976,-1.70000005]
								,"max": [0.699999988,1.05799997,4.33680869E-19]
			},
			{
				"bufferView": 5,
				"byteOffset" : 0,
				"componentType" : 5126,
				"count" : 122,
				"type" : "VEC3"
			},
			{
				"bufferView": 6,
				"byteOffset" : 0,
				"componentType" : 5126,
				"count" : 122,
				"type" : "VEC2"
			},
			{
				"bufferView": 11,
				"byteOffset" : 0,
				"componentType" : 5125,
				"count" : 180,
				"type" : "SCALAR"
			},
			{
				"bufferView": 8,
				"byteOffset" : 0,
				"componentType" : 5126,
				"count" : 122,
				"type" : "VEC3"
								,"min": [-4.33680869E-19,0.899999976,-1.70000005]
								,"max": [0.699999988,1.05799997,4.33680869E-19]
			},
			{
				"bufferView": 9,
				"byteOffset" : 0,
				"componentType" : 5126,
				"count" : 122,
				"type" : "VEC3"
			},
			{
				"bufferView": 10,
				"byteOffset" : 0,
				"componentType" : 5126,
				"count" : 122,
				"type" : "VEC2"
			}
	],
	"materials": [
			{
				"name": "PW-MT11000",
					"normalTexture": {
						"index": 0,
						"scale": 0.018
						,"extensions": {
							"KHR_texture_transform": {
								"offset": [-2.488235,-3.488236],
								"rotation": 0,
								"scale": [5.976471, 5.976471]
							}
						}
					}
				,"emissiveFactor": [
					0, 0, 0
				]
				,"pbrMetallicRoughness": {
					"baseColorFactor": [
						0.9968569, 0.9968569, 0.9968569, 1
					]
					,"metallicFactor": 0.02343804
					,"roughnessFactor": 0.5404628
				}
				,"alphaMode": "OPAQUE"
				,"doubleSided": true
			},
			{
				"name": "clear thick glass",
				"emissiveFactor": [
					0, 0, 0
				]
				,"pbrMetallicRoughness": {
					"baseColorTexture": {
						"index": 1
					}
					,"baseColorFactor": [
						0.1764424, 0.1846306, 0.1879627, 0.5170794
					]
					,"metallicFactor": 1
					,"roughnessFactor": 0
				}
				,"alphaMode": "BLEND"
				,"doubleSided": false
			}
	],
	"textures": [
			{
				"sampler": 0,
				"source": 0,
				"name": "20210605_glas-cabinet_Texture_0002.png"
			},
			{
				"sampler": 1,
				"source": 1,
				"name": "20210605_glas-cabinet_Texture_0003.png"
			}
	],
	"images": [
			{
				"uri": "20210605_glas-cabinet_Texture_0002.png"
			},
			{
				"uri": "20210605_glas-cabinet_Texture_0003.png"
			}
	],
	"samplers": [
			{
				"magFilter": 9729,
				"minFilter" : 9729,
				"wrapS" : 10497,
				"wrapT" : 10497,
				"name": "DefaultSampler"
			},
			{
				"magFilter": 9729,
				"minFilter" : 9729,
				"wrapS" : 10497,
				"wrapT" : 10497,
				"name": "DefaultSampler"
			}
	],
	"bufferViews" : [
			{
				"buffer": 0
				,"byteOffset" : 0
				,"byteLength" : 576
				,"byteStride" : 12
				,"target" : 34962
			},
			{
				"buffer": 0
				,"byteOffset" : 576
				,"byteLength" : 576
				,"byteStride" : 12
				,"target" : 34962
			},
			{
				"buffer": 0
				,"byteOffset" : 1152
				,"byteLength" : 384
				,"byteStride" : 8
				,"target" : 34962
			},
			{
				"buffer": 0
				,"byteOffset" : 1536
				,"byteLength" : 336
				,"target" : 34963
			},
			{
				"buffer": 1
				,"byteOffset" : 0
				,"byteLength" : 1464
				,"byteStride" : 12
				,"target" : 34962
			},
			{
				"buffer": 1
				,"byteOffset" : 1464
				,"byteLength" : 1464
				,"byteStride" : 12
				,"target" : 34962
			},
			{
				"buffer": 1
				,"byteOffset" : 2928
				,"byteLength" : 976
				,"byteStride" : 8
				,"target" : 34962
			},
			{
				"buffer": 1
				,"byteOffset" : 3904
				,"byteLength" : 720
				,"target" : 34963
			},
			{
				"buffer": 2
				,"byteOffset" : 0
				,"byteLength" : 1464
				,"byteStride" : 12
				,"target" : 34962
			},
			{
				"buffer": 2
				,"byteOffset" : 1464
				,"byteLength" : 1464
				,"byteStride" : 12
				,"target" : 34962
			},
			{
				"buffer": 2
				,"byteOffset" : 2928
				,"byteLength" : 976
				,"byteStride" : 8
				,"target" : 34962
			},
			{
				"buffer": 2
				,"byteOffset" : 3904
				,"byteLength" : 720
				,"target" : 34963
			}
	],
	"buffers" : [
			{
				"byteLength": 1872
				,"uri" : "20210605_glas-cabinet_0001.bin"
			},
			{
				"byteLength": 4624
				,"uri" : "20210605_glas-cabinet_0002.bin"
			},
			{
				"byteLength": 4624
				,"uri" : "20210605_glas-cabinet_0003.bin"
			}
	]
}
